<svg xmlns="http://www.w3.org/2000/svg" viewBox="0 0 4000 2877.35"><defs><style>.cls-1{fill:#f5325c;}.cls-2{fill:#fefefe;}</style></defs><title>ambulance</title><g id="ICON"><path class="cls-1" d="M2443.33,529.08H54.35A19.15,19.15,0,0,0,35.2,548.23V1957.12a19.14,19.14,0,0,0,19.15,19.14h2389a19.14,19.14,0,0,0,19.15-19.14V548.23A19.15,19.15,0,0,0,2443.33,529.08Zm-100,1321.8a19.15,19.15,0,0,1-19.15,19.14H173.51a19.14,19.14,0,0,1-19.15-19.14V654.47a19.14,19.14,0,0,1,19.15-19.14H2324.17a19.15,19.15,0,0,1,19.15,19.14Z"/><path class="cls-1" d="M3929.53,2079.15h-188.7V1744c0-100.35-81.35-181.71-181.7-181.71H3329c-44.3-211.66-117.77-399.07-203.87-542.69-74.48-124.25-190.54-215.35-335.41-215.35h-565v758H494.1c-100.35,0-181.7,81.36-181.7,181.71v335.14H140.92a35.27,35.27,0,0,0-35.26,35.27v297a35.27,35.27,0,0,0,35.26,35.27H699c4.6-213.27,178.79-384.77,393.16-384.77s388.57,171.5,393.17,384.77H2579.76c4.6-213.27,178.79-384.77,393.16-384.77s388.56,171.5,393.16,384.77h563.45a35.27,35.27,0,0,0,35.27-35.27v-297A35.27,35.27,0,0,0,3929.53,2079.15Z"/><path class="cls-1" d="M1098.88,2163.78c-185.54,0-336,150.41-336,335.95s150.41,336,336,336,335.95-150.42,335.95-336S1284.42,2163.78,1098.88,2163.78Zm0,516.2a180.25,180.25,0,1,1,180.25-180.25A180.25,180.25,0,0,1,1098.88,2680Z"/><path class="cls-1" d="M2973.9,2163.78c-185.55,0-336,150.41-336,335.95s150.41,336,336,336,335.95-150.42,335.95-336S3159.44,2163.78,2973.9,2163.78Zm0,516.2a180.25,180.25,0,1,1,180.25-180.25A180.25,180.25,0,0,1,2973.9,2680Z"/><path class="cls-2" d="M3142.33,1484.78H2364.19V930.6h393c69.74,0,137.46,26.62,186.43,76.27C3047.91,1112.65,3105.89,1305.38,3142.33,1484.78Z"/><path class="cls-1" d="M1429.41,461.84c-3.78-94.19-81.29-169.41-176.41-169.41s-172.64,75.22-176.41,169.41Z"/><path class="cls-1" d="M1253,256.54a14.36,14.36,0,0,1-14.36-14.36V67a14.36,14.36,0,1,1,28.71,0V242.18A14.35,14.35,0,0,1,1253,256.54Z"/><path class="cls-1" d="M1397.57,317.5a14.35,14.35,0,0,1-10.1-24.56L1512,169.75a14.36,14.36,0,0,1,20.2,20.41L1407.67,313.35A14.31,14.31,0,0,1,1397.57,317.5Z"/><path class="cls-1" d="M1100.11,317.5a14.31,14.31,0,0,1-10.1-4.15L965.5,190.16a14.36,14.36,0,0,1,20.2-20.41l124.51,123.19a14.35,14.35,0,0,1-10.1,24.56Z"/></g></svg>