<svg xmlns="http://www.w3.org/2000/svg" viewBox="0 0 2492.13 2717.76"><defs><style>.cls-1,.cls-3{fill:#af76fb;}.cls-2{fill:#fff;stroke:#af76fb;stroke-miterlimit:10;stroke-width:5px;}.cls-3{fill-rule:evenodd;}</style></defs><title>doctor</title><g id="ICON"><circle class="cls-1" cx="420.76" cy="1267.38" r="181.72"/><path class="cls-1" d="M420.76,876.48c-215.89,0-390.9,175-390.9,390.9,0,195,142.77,356.64,329.49,386.1a395.64,395.64,0,0,0,125.56-.43c185.36-30.62,326.74-191.64,326.74-385.67C811.65,1051.49,636.64,876.48,420.76,876.48Zm0,696.71c-168.9,0-305.82-136.92-305.82-305.81S251.86,961.56,420.76,961.56s305.81,136.92,305.81,305.82S589.65,1573.19,420.76,1573.19Z"/><circle class="cls-1" cx="420.76" cy="1267.38" r="181.72"/><circle class="cls-2" cx="420.76" cy="1267.38" r="181.72"/><path class="cls-3" d="M2462.27,562.45c0-333.53-160.9-368.86-423.77-423.73h-3.89c-15.67-31.43-47.06-55-86.38-55-58.8,0-101.94,43.19-101.94,98.07,0,51,43.14,90.29,101.94,90.29,19.72,0,43.25-7.84,59-19.69,258.91,55,329.5,70.65,329.5,310,0,188.29-98.13,443.35-243.32,627.71-27.41,0-50.9,11.75-66.62,31.35-78.52,78.53-196.13,176.61-341.31,176.61-141.22,0-262.87-98.08-337.35-176.61-15.79-19.6-43.29-27.42-66.78-31.35C1136.16,1005.8,1038,750.74,1038,562.45c0-239.37,66.76-255.06,325.74-310,19.64,11.85,39.2,19.69,62.69,19.69,54.92,0,101.94-39.27,101.94-90.29,0-54.88-47-98.07-101.94-98.07-39.16,0-74.55,23.53-90.26,55-266.81,54.87-427.67,90.2-427.67,423.73,0,215.73,106,498.22,274.66,706.18-3.93,19.64,3.93,47.1,19.76,66.7q194,206,411.83,235.37l-3.93,419.83c0,290.34-251.13,525.74-561.06,525.74s-564.87-235.4-564.87-525.74V1634.86H359.35v355.67c0,357.07,309.93,643.47,690.43,643.47s690.57-286.4,690.57-643.47V1570.7h7.82c149.11-19.58,290.33-98,419.84-235.37,19.56-19.6,27.42-47.06,23.53-70.63C2360.17,1060.67,2462.27,778.18,2462.27,562.45Z"/></g></svg>