<svg xmlns="http://www.w3.org/2000/svg" viewBox="0 0 4000 2877.35"><defs><style>.cls-1{fill:#03d87f;}</style></defs><title>hospital</title><g id="ICON"><path class="cls-1" d="M271.12,1128.81V2554.14H1513.71V1128.81Zm660.54,240.77h265.66v244.69H931.66Zm0,349.66h265.66v244.68H931.66Zm0,339.17h265.66v244.68H931.66Zm-451-688.83H746.34v244.69H480.68Zm0,349.66H746.34v244.68H480.68Zm0,339.17H746.34v244.68H480.68Z"/><path class="cls-1" d="M2504.64,1128.81V2554.14H3747.23V1128.81ZM3272,1369.58h265.66v244.69H3272Zm0,349.66h265.66v244.68H3272Zm0,339.17h265.66v244.68H3272Zm-451-688.83H3086.7v244.69H2821Zm0,349.66H3086.7v244.68H2821Zm0,339.17H3086.7v244.68H2821Z"/><path class="cls-1" d="M1382.64,242V2554.14H2625.23V242ZM1687,1089.44h236.6V852.83h171.13v236.61h236.6v171.12h-236.6v236.61H1923.61V1260.56H1687Z"/><path class="cls-1" d="M3919.37,2635.37H80.63A66.41,66.41,0,0,1,14.21,2569h0a66.42,66.42,0,0,1,66.42-66.42H3919.37a66.42,66.42,0,0,1,66.42,66.42h0A66.41,66.41,0,0,1,3919.37,2635.37Z"/></g></svg>