<svg xmlns="http://www.w3.org/2000/svg" viewBox="0 0 2492.13 2717.76"><defs><style>.cls-1{fill:#404042;}.cls-2{fill:#12a4ed;}.cls-3,.cls-4{fill:#fff;stroke-width:3px;}.cls-3,.cls-5{stroke:#12a4ed;}.cls-3,.cls-4,.cls-5{stroke-miterlimit:10;}.cls-4{stroke:#404042;}.cls-5{fill:none;stroke-width:5px;}</style></defs><title>nurse</title><g id="ICON"><circle class="cls-1" cx="930.69" cy="1941.39" r="95.61" transform="translate(-1134.71 2549.09) rotate(-80.78)"/><path class="cls-1" d="M1584.48,2233.24c-26.1,104.57-87.06,174.34-162.4,213.39l-176-37.9-163.54,35.21C998.38,2402.26,931,2330,907.85,2232.64a9.44,9.44,0,0,1,14.9-9.66q323.45,245.33,646.87.5A9.43,9.43,0,0,1,1584.48,2233.24Z"/><circle class="cls-1" cx="1526.72" cy="1941.39" r="95.61" transform="translate(-634.15 3137.42) rotate(-80.78)"/><path class="cls-2" d="M2020.21,1826.69a911.06,911.06,0,0,0-5.68-101.9h-52c-358.28-3.34-610.2-132.53-736.31-410.63-6-13.26-25.79-13.05-30.17.83-96.7,306.13-434.34,430.91-743.55,453.36q-1.83,28.92-1.84,58.34c0,281.16,128.22,530.16,325.32,683.23L35.37,2669.37,325,1158.53l3.2-16.69,4.86-25.38c163.44-112,338.21-202.84,529.78-262.26A1708.4,1708.4,0,0,1,1245,782l.46,21,.65,29.14.65-29.16.47-20.95a1713,1713,0,0,1,318.33,53.78c161.68,43.36,311.42,109,452.35,191.17q71,41.37,139.09,88.1l2.15,1.45,297.66,1552.91-757.29-163C1894,2353,2020.21,2105.66,2020.21,1826.69Z"/><path class="cls-3" d="M2014.53,1724.79h-52c-358.28-3.34-610.2-132.53-736.31-410.63-6-13.26-25.79-13.05-30.17.83-96.7,306.13-434.34,430.91-743.55,453.36q-1.83,28.92-1.84,58.34c0,281.16,128.22,530.16,325.32,683.23,129.14,100.33,287.87,159.45,459.43,159.45,173.63,0,334.07-60.53,464-163,194.5-153.38,320.74-400.69,320.74-679.66A911.06,911.06,0,0,0,2014.53,1724.79Zm-487.81,121a95.61,95.61,0,1,1-95.61,95.61A95.6,95.6,0,0,1,1526.72,1845.78Zm-596,0a95.61,95.61,0,1,1-95.61,95.61A95.61,95.61,0,0,1,930.69,1845.78Zm151.83,598.16C998.38,2402.26,931,2330,907.85,2232.64a9.44,9.44,0,0,1,14.9-9.66q323.45,245.33,646.87.5a9.43,9.43,0,0,1,14.86,9.76c-26.1,104.57-87.06,174.34-162.4,213.39C1318.38,2500.37,1187.44,2495.93,1082.52,2443.94Z"/><circle class="cls-4" cx="930.69" cy="1941.39" r="95.61" transform="translate(-1134.71 2549.09) rotate(-80.78)"/><path class="cls-4" d="M1584.48,2233.24c-26.1,104.57-87.06,174.34-162.4,213.39-103.7,53.74-234.64,49.3-339.56-2.69C998.38,2402.26,931,2330,907.85,2232.64a9.44,9.44,0,0,1,14.9-9.66q323.45,245.33,646.87.5A9.43,9.43,0,0,1,1584.48,2233.24Z"/><circle class="cls-4" cx="1526.72" cy="1941.39" r="95.61" transform="translate(-634.15 3137.42) rotate(-80.78)"/><path class="cls-4" d="M2014.53,1724.79h-52c-358.28-3.34-610.2-132.53-736.31-410.63-6-13.26-25.79-13.05-30.17.83-96.7,306.13-434.34,430.91-743.55,453.36C468.93,1511,593,1285.33,776.68,1143,905.7,1043,1064.16,984,1235.44,984S1565.19,1043,1694.22,1143C1867.49,1277.23,1987.67,1485.59,2014.53,1724.79Z"/><circle class="cls-2" cx="930.69" cy="1941.39" r="95.61" transform="translate(-1134.71 2549.09) rotate(-80.78)"/><circle class="cls-2" cx="1526.72" cy="1941.39" r="95.61" transform="translate(-634.15 3137.42) rotate(-80.78)"/><path class="cls-2" d="M1584.48,2233.24c-26.1,104.57-87.06,174.34-162.4,213.39-103.7,53.74-234.64,49.3-339.56-2.69C998.38,2402.26,931,2330,907.85,2232.64a9.44,9.44,0,0,1,14.9-9.66q323.45,245.33,646.87.5A9.43,9.43,0,0,1,1584.48,2233.24Z"/><path class="cls-5" d="M328.55,1143H2146.42L2367.28,557a94.48,94.48,0,0,0-25.49-104C1729.88-89,799.87-84.35,152.43,454.22a94.55,94.55,0,0,0-28.57,103.92Z"/><path class="cls-2" d="M2185.24,1724.79H1962.56c-358.28-3.34-610.2-132.53-736.31-410.63-6-13.26-25.79-13.05-30.17.83-96.7,306.13-434.34,430.91-743.55,453.36-40,2.9-79.59,4.1-118.08,3.74L325,1158.53l-.42-27-.22-14c158.52-122.86,343.46-212,538.48-263.33a1548.18,1548.18,0,0,1,382.6-51.27c.45,0,.87,0,1.3,0a1452.69,1452.69,0,0,1,318.8,32.83c159.85,34.84,313.58,97.85,452.35,191.17A1246.25,1246.25,0,0,1,2146.31,1126l1,14.75Z"/><polygon class="cls-2" points="1481.82 364.19 1288.59 364.19 1288.59 170.96 1148.84 170.96 1148.84 364.19 955.61 364.19 955.61 503.94 1148.84 503.94 1148.84 697.17 1288.59 697.17 1288.59 503.94 1481.82 503.94 1481.82 364.19"/></g></svg>